<?xml version="1.0" encoding="UTF-8" standalone="no"?>
<!DOCTYPE svg PUBLIC "-//W3C//DTD SVG 1.1//EN"
 "http://www.w3.org/Graphics/SVG/1.1/DTD/svg11.dtd">
<!-- Generated by graphviz version 2.47.0 (20210316.0004)
 -->
<!-- Title: dependencies Pages: 1 -->
<svg width="1377pt" height="211pt"
 viewBox="0.00 0.00 1377.00 211.00" xmlns="http://www.w3.org/2000/svg" xmlns:xlink="http://www.w3.org/1999/xlink">
<g id="graph0" class="graph" transform="scale(1 1) rotate(0) translate(4 207)">
<title>dependencies</title>
<polygon fill="white" stroke="transparent" points="-4,4 -4,-207 1373,-207 1373,4 -4,4"/>
<text text-anchor="start" x="663.51" y="-42.4" font-family="Times-12" font-weight="bold" font-size="14.00">Legend</text>
<polygon fill="#ffffb3" stroke="transparent" points="450.5,-10 450.5,-30 470.5,-30 470.5,-10 450.5,-10"/>
<text text-anchor="start" x="474.13" y="-15.4" font-family="Times-12" font-size="14.00"> &#160;Declarations</text>
<polygon fill="#8dd3c7" stroke="transparent" points="563.5,-10 563.5,-30 583.5,-30 583.5,-10 563.5,-10"/>
<text text-anchor="start" x="587.23" y="-15.4" font-family="Times-12" font-size="14.00"> &#160;Module</text>
<polygon fill="#80b1d3" stroke="transparent" points="649.5,-10 649.5,-30 669.5,-30 669.5,-10 649.5,-10"/>
<text text-anchor="start" x="673.28" y="-15.4" font-family="Times-12" font-size="14.00"> &#160;Bootstrap</text>
<polygon fill="#fdb462" stroke="transparent" points="746.5,-10 746.5,-30 766.5,-30 766.5,-10 746.5,-10"/>
<text text-anchor="start" x="770.17" y="-15.4" font-family="Times-12" font-size="14.00"> &#160;Providers</text>
<polygon fill="#fb8072" stroke="transparent" points="842.5,-10 842.5,-30 862.5,-30 862.5,-10 842.5,-10"/>
<text text-anchor="start" x="866.23" y="-15.4" font-family="Times-12" font-size="14.00"> &#160;Exports</text>
<g id="clust1" class="cluster">
<title>cluster_AdminLayoutModule</title>
<polygon fill="none" stroke="black" stroke-dasharray="1,5" points="8,-70 8,-195 1361,-195 1361,-70 8,-70"/>
</g>
<g id="clust2" class="cluster">
<title>cluster_AdminLayoutModule_declarations</title>
<polygon fill="none" stroke="black" points="16,-78 16,-130 1353,-130 1353,-78 16,-78"/>
</g>
<!-- CreateReportComponent -->
<g id="node1" class="node">
<title>CreateReportComponent</title>
<polygon fill="#ffffb3" stroke="black" points="1344.97,-122 1189.03,-122 1189.03,-86 1344.97,-86 1344.97,-122"/>
<text text-anchor="middle" x="1267" y="-99.8" font-family="Times,serif" font-size="14.00">CreateReportComponent</text>
</g>
<!-- AdminLayoutModule -->
<g id="node10" class="node">
<title>AdminLayoutModule</title>
<polygon fill="#8dd3c7" stroke="black" points="743.1,-187 740.1,-191 719.1,-191 716.1,-187 604.9,-187 604.9,-151 743.1,-151 743.1,-187"/>
<text text-anchor="middle" x="674" y="-164.8" font-family="Times,serif" font-size="14.00">AdminLayoutModule</text>
</g>
<!-- CreateReportComponent&#45;&gt;AdminLayoutModule -->
<g id="edge1" class="edge">
<title>CreateReportComponent&#45;&gt;AdminLayoutModule</title>
<path fill="none" stroke="black" d="M1267,-122.01C1267,-144.49 1267,-180 1267,-180 1267,-180 753.19,-180 753.19,-180"/>
<polygon fill="black" stroke="black" points="753.19,-176.5 743.19,-180 753.19,-183.5 753.19,-176.5"/>
</g>
<!-- DashboardComponent -->
<g id="node2" class="node">
<title>DashboardComponent</title>
<polygon fill="#ffffb3" stroke="black" points="1170.97,-122 1029.03,-122 1029.03,-86 1170.97,-86 1170.97,-122"/>
<text text-anchor="middle" x="1100" y="-99.8" font-family="Times,serif" font-size="14.00">DashboardComponent</text>
</g>
<!-- DashboardComponent&#45;&gt;AdminLayoutModule -->
<g id="edge2" class="edge">
<title>DashboardComponent&#45;&gt;AdminLayoutModule</title>
<path fill="none" stroke="black" d="M1100,-122.13C1100,-142.57 1100,-173 1100,-173 1100,-173 753.39,-173 753.39,-173"/>
<polygon fill="black" stroke="black" points="753.39,-169.5 743.39,-173 753.39,-176.5 753.39,-169.5"/>
</g>
<!-- IconsComponent -->
<g id="node3" class="node">
<title>IconsComponent</title>
<polygon fill="#ffffb3" stroke="black" points="1010.65,-122 899.35,-122 899.35,-86 1010.65,-86 1010.65,-122"/>
<text text-anchor="middle" x="955" y="-99.8" font-family="Times,serif" font-size="14.00">IconsComponent</text>
</g>
<!-- IconsComponent&#45;&gt;AdminLayoutModule -->
<g id="edge3" class="edge">
<title>IconsComponent&#45;&gt;AdminLayoutModule</title>
<path fill="none" stroke="black" d="M955,-122.27C955,-140.56 955,-166 955,-166 955,-166 753.1,-166 753.1,-166"/>
<polygon fill="black" stroke="black" points="753.1,-162.5 743.1,-166 753.1,-169.5 753.1,-162.5"/>
</g>
<!-- MapsComponent -->
<g id="node4" class="node">
<title>MapsComponent</title>
<polygon fill="#ffffb3" stroke="black" points="881.44,-122 768.56,-122 768.56,-86 881.44,-86 881.44,-122"/>
<text text-anchor="middle" x="825" y="-99.8" font-family="Times,serif" font-size="14.00">MapsComponent</text>
</g>
<!-- MapsComponent&#45;&gt;AdminLayoutModule -->
<g id="edge4" class="edge">
<title>MapsComponent&#45;&gt;AdminLayoutModule</title>
<path fill="none" stroke="black" d="M825,-122.01C825,-138.05 825,-159 825,-159 825,-159 753.31,-159 753.31,-159"/>
<polygon fill="black" stroke="black" points="753.31,-155.5 743.31,-159 753.31,-162.5 753.31,-155.5"/>
</g>
<!-- NotificationsComponent -->
<g id="node5" class="node">
<title>NotificationsComponent</title>
<polygon fill="#ffffb3" stroke="black" points="751.43,-122 596.57,-122 596.57,-86 751.43,-86 751.43,-122"/>
<text text-anchor="middle" x="674" y="-99.8" font-family="Times,serif" font-size="14.00">NotificationsComponent</text>
</g>
<!-- NotificationsComponent&#45;&gt;AdminLayoutModule -->
<g id="edge5" class="edge">
<title>NotificationsComponent&#45;&gt;AdminLayoutModule</title>
<path fill="none" stroke="black" d="M674,-122.11C674,-122.11 674,-140.99 674,-140.99"/>
<polygon fill="black" stroke="black" points="670.5,-140.99 674,-150.99 677.5,-140.99 670.5,-140.99"/>
</g>
<!-- TableComponent -->
<g id="node6" class="node">
<title>TableComponent</title>
<polygon fill="#ffffb3" stroke="black" points="578.7,-122 465.3,-122 465.3,-86 578.7,-86 578.7,-122"/>
<text text-anchor="middle" x="522" y="-99.8" font-family="Times,serif" font-size="14.00">TableComponent</text>
</g>
<!-- TableComponent&#45;&gt;AdminLayoutModule -->
<g id="edge6" class="edge">
<title>TableComponent&#45;&gt;AdminLayoutModule</title>
<path fill="none" stroke="black" d="M522,-122.01C522,-138.05 522,-159 522,-159 522,-159 594.67,-159 594.67,-159"/>
<polygon fill="black" stroke="black" points="594.67,-162.5 604.67,-159 594.67,-155.5 594.67,-162.5"/>
</g>
<!-- TypographyComponent -->
<g id="node7" class="node">
<title>TypographyComponent</title>
<polygon fill="#ffffb3" stroke="black" points="447.76,-122 298.24,-122 298.24,-86 447.76,-86 447.76,-122"/>
<text text-anchor="middle" x="373" y="-99.8" font-family="Times,serif" font-size="14.00">TypographyComponent</text>
</g>
<!-- TypographyComponent&#45;&gt;AdminLayoutModule -->
<g id="edge7" class="edge">
<title>TypographyComponent&#45;&gt;AdminLayoutModule</title>
<path fill="none" stroke="black" d="M373,-122.27C373,-140.56 373,-166 373,-166 373,-166 594.94,-166 594.94,-166"/>
<polygon fill="black" stroke="black" points="594.94,-169.5 604.94,-166 594.94,-162.5 594.94,-169.5"/>
</g>
<!-- UpgradeComponent -->
<g id="node8" class="node">
<title>UpgradeComponent</title>
<polygon fill="#ffffb3" stroke="black" points="279.53,-122 150.47,-122 150.47,-86 279.53,-86 279.53,-122"/>
<text text-anchor="middle" x="215" y="-99.8" font-family="Times,serif" font-size="14.00">UpgradeComponent</text>
</g>
<!-- UpgradeComponent&#45;&gt;AdminLayoutModule -->
<g id="edge8" class="edge">
<title>UpgradeComponent&#45;&gt;AdminLayoutModule</title>
<path fill="none" stroke="black" d="M215,-122.13C215,-142.57 215,-173 215,-173 215,-173 594.79,-173 594.79,-173"/>
<polygon fill="black" stroke="black" points="594.79,-176.5 604.79,-173 594.79,-169.5 594.79,-176.5"/>
</g>
<!-- UserComponent -->
<g id="node9" class="node">
<title>UserComponent</title>
<polygon fill="#ffffb3" stroke="black" points="131.76,-122 24.24,-122 24.24,-86 131.76,-86 131.76,-122"/>
<text text-anchor="middle" x="78" y="-99.8" font-family="Times,serif" font-size="14.00">UserComponent</text>
</g>
<!-- UserComponent&#45;&gt;AdminLayoutModule -->
<g id="edge9" class="edge">
<title>UserComponent&#45;&gt;AdminLayoutModule</title>
<path fill="none" stroke="black" d="M78,-122.01C78,-144.49 78,-180 78,-180 78,-180 594.76,-180 594.76,-180"/>
<polygon fill="black" stroke="black" points="594.76,-183.5 604.76,-180 594.76,-176.5 594.76,-183.5"/>
</g>
</g>
</svg>
