<?xml version="1.0" encoding="UTF-8" standalone="no"?>
<!DOCTYPE svg PUBLIC "-//W3C//DTD SVG 1.1//EN"
 "http://www.w3.org/Graphics/SVG/1.1/DTD/svg11.dtd">
<!-- Generated by graphviz version 2.47.0 (20210316.0004)
 -->
<!-- Title: dependencies Pages: 1 -->
<svg width="845pt" height="284pt"
 viewBox="0.00 0.00 845.00 284.00" xmlns="http://www.w3.org/2000/svg" xmlns:xlink="http://www.w3.org/1999/xlink">
<g id="graph0" class="graph" transform="scale(1 1) rotate(0) translate(4 280)">
<title>dependencies</title>
<polygon fill="white" stroke="transparent" points="-4,4 -4,-280 841,-280 841,4 -4,4"/>
<text text-anchor="start" x="397.51" y="-42.4" font-family="Times-12" font-weight="bold" font-size="14.00">Legend</text>
<polygon fill="#ffffb3" stroke="transparent" points="184.5,-10 184.5,-30 204.5,-30 204.5,-10 184.5,-10"/>
<text text-anchor="start" x="208.13" y="-15.4" font-family="Times-12" font-size="14.00"> &#160;Declarations</text>
<polygon fill="#8dd3c7" stroke="transparent" points="297.5,-10 297.5,-30 317.5,-30 317.5,-10 297.5,-10"/>
<text text-anchor="start" x="321.23" y="-15.4" font-family="Times-12" font-size="14.00"> &#160;Module</text>
<polygon fill="#80b1d3" stroke="transparent" points="383.5,-10 383.5,-30 403.5,-30 403.5,-10 383.5,-10"/>
<text text-anchor="start" x="407.28" y="-15.4" font-family="Times-12" font-size="14.00"> &#160;Bootstrap</text>
<polygon fill="#fdb462" stroke="transparent" points="480.5,-10 480.5,-30 500.5,-30 500.5,-10 480.5,-10"/>
<text text-anchor="start" x="504.17" y="-15.4" font-family="Times-12" font-size="14.00"> &#160;Providers</text>
<polygon fill="#fb8072" stroke="transparent" points="576.5,-10 576.5,-30 596.5,-30 596.5,-10 576.5,-10"/>
<text text-anchor="start" x="600.23" y="-15.4" font-family="Times-12" font-size="14.00"> &#160;Exports</text>
<g id="clust1" class="cluster">
<title>cluster_AppModule</title>
<polygon fill="none" stroke="black" stroke-dasharray="1,5" points="8,-70 8,-268 829,-268 829,-70 8,-70"/>
</g>
<g id="clust2" class="cluster">
<title>cluster_AppModule_declarations</title>
<polygon fill="none" stroke="black" points="521,-78 521,-130 821,-130 821,-78 521,-78"/>
</g>
<g id="clust5" class="cluster">
<title>cluster_AppModule_imports</title>
<polygon fill="none" stroke="black" points="16,-78 16,-130 513,-130 513,-78 16,-78"/>
</g>
<g id="clust7" class="cluster">
<title>cluster_AppModule_bootstrap</title>
<polygon fill="none" stroke="black" points="314,-208 314,-260 438,-260 438,-208 314,-208"/>
</g>
<!-- AdminLayoutComponent -->
<g id="node1" class="node">
<title>AdminLayoutComponent</title>
<polygon fill="#ffffb3" stroke="black" points="812.88,-122 653.12,-122 653.12,-86 812.88,-86 812.88,-122"/>
<text text-anchor="middle" x="733" y="-99.8" font-family="Times,serif" font-size="14.00">AdminLayoutComponent</text>
</g>
<!-- AppModule -->
<g id="node3" class="node">
<title>AppModule</title>
<polygon fill="#8dd3c7" stroke="black" points="417.66,-187 414.66,-191 393.66,-191 390.66,-187 334.34,-187 334.34,-151 417.66,-151 417.66,-187"/>
<text text-anchor="middle" x="376" y="-164.8" font-family="Times,serif" font-size="14.00">AppModule</text>
</g>
<!-- AdminLayoutComponent&#45;&gt;AppModule -->
<g id="edge1" class="edge">
<title>AdminLayoutComponent&#45;&gt;AppModule</title>
<path fill="none" stroke="black" d="M733,-122.28C733,-143.32 733,-175 733,-175 733,-175 428,-175 428,-175"/>
<polygon fill="black" stroke="black" points="428,-171.5 418,-175 428,-178.5 428,-171.5"/>
</g>
<!-- AppComponent -->
<g id="node2" class="node">
<title>AppComponent</title>
<polygon fill="#ffffb3" stroke="black" points="634.94,-122 529.06,-122 529.06,-86 634.94,-86 634.94,-122"/>
<text text-anchor="middle" x="582" y="-99.8" font-family="Times,serif" font-size="14.00">AppComponent</text>
</g>
<!-- AppComponent&#45;&gt;AppModule -->
<g id="edge2" class="edge">
<title>AppComponent&#45;&gt;AppModule</title>
<path fill="none" stroke="black" d="M582,-122.02C582,-139.37 582,-163 582,-163 582,-163 427.69,-163 427.69,-163"/>
<polygon fill="black" stroke="black" points="427.69,-159.5 417.69,-163 427.69,-166.5 427.69,-159.5"/>
</g>
<!-- AppComponent  -->
<g id="node8" class="node">
<title>AppComponent </title>
<polygon fill="#80b1d3" stroke="black" points="430.44,-252 321.56,-252 321.56,-216 430.44,-216 430.44,-252"/>
<text text-anchor="middle" x="376" y="-229.8" font-family="Times,serif" font-size="14.00">AppComponent </text>
</g>
<!-- AppModule&#45;&gt;AppComponent  -->
<g id="edge7" class="edge">
<title>AppModule&#45;&gt;AppComponent </title>
<path fill="none" stroke="black" stroke-dasharray="1,5" d="M376,-187.11C376,-187.11 376,-205.99 376,-205.99"/>
<polygon fill="black" stroke="black" points="372.5,-205.99 376,-215.99 379.5,-205.99 372.5,-205.99"/>
</g>
<!-- FixedPluginModule -->
<g id="node4" class="node">
<title>FixedPluginModule</title>
<polygon fill="#8dd3c7" stroke="black" points="505,-122 502,-126 481,-126 478,-122 377,-122 377,-86 505,-86 505,-122"/>
<text text-anchor="middle" x="441" y="-99.8" font-family="Times,serif" font-size="14.00">FixedPluginModule</text>
</g>
<!-- FixedPluginModule&#45;&gt;AppModule -->
<g id="edge3" class="edge">
<title>FixedPluginModule&#45;&gt;AppModule</title>
<path fill="none" stroke="black" d="M397.41,-122.11C397.41,-122.11 397.41,-140.99 397.41,-140.99"/>
<polygon fill="black" stroke="black" points="393.91,-140.99 397.41,-150.99 400.91,-140.99 393.91,-140.99"/>
</g>
<!-- FooterModule -->
<g id="node5" class="node">
<title>FooterModule</title>
<polygon fill="#8dd3c7" stroke="black" points="359.1,-122 356.1,-126 335.1,-126 332.1,-122 262.9,-122 262.9,-86 359.1,-86 359.1,-122"/>
<text text-anchor="middle" x="311" y="-99.8" font-family="Times,serif" font-size="14.00">FooterModule</text>
</g>
<!-- FooterModule&#45;&gt;AppModule -->
<g id="edge4" class="edge">
<title>FooterModule&#45;&gt;AppModule</title>
<path fill="none" stroke="black" d="M346.61,-122.11C346.61,-122.11 346.61,-140.99 346.61,-140.99"/>
<polygon fill="black" stroke="black" points="343.11,-140.99 346.61,-150.99 350.11,-140.99 343.11,-140.99"/>
</g>
<!-- NavbarModule -->
<g id="node6" class="node">
<title>NavbarModule</title>
<polygon fill="#8dd3c7" stroke="black" points="245.25,-122 242.25,-126 221.25,-126 218.25,-122 144.75,-122 144.75,-86 245.25,-86 245.25,-122"/>
<text text-anchor="middle" x="195" y="-99.8" font-family="Times,serif" font-size="14.00">NavbarModule</text>
</g>
<!-- NavbarModule&#45;&gt;AppModule -->
<g id="edge5" class="edge">
<title>NavbarModule&#45;&gt;AppModule</title>
<path fill="none" stroke="black" d="M195,-122.02C195,-139.37 195,-163 195,-163 195,-163 324.02,-163 324.02,-163"/>
<polygon fill="black" stroke="black" points="324.02,-166.5 334.02,-163 324.02,-159.5 324.02,-166.5"/>
</g>
<!-- SidebarModule -->
<g id="node7" class="node">
<title>SidebarModule</title>
<polygon fill="#8dd3c7" stroke="black" points="126.31,-122 123.31,-126 102.31,-126 99.31,-122 23.69,-122 23.69,-86 126.31,-86 126.31,-122"/>
<text text-anchor="middle" x="75" y="-99.8" font-family="Times,serif" font-size="14.00">SidebarModule</text>
</g>
<!-- SidebarModule&#45;&gt;AppModule -->
<g id="edge6" class="edge">
<title>SidebarModule&#45;&gt;AppModule</title>
<path fill="none" stroke="black" d="M75,-122.28C75,-143.32 75,-175 75,-175 75,-175 324.15,-175 324.15,-175"/>
<polygon fill="black" stroke="black" points="324.15,-178.5 334.15,-175 324.15,-171.5 324.15,-178.5"/>
</g>
</g>
</svg>
